
<svg xmlns="http://www.w3.org/2000/svg" version="1.1" xmlns:xlink="http://www.w3.org/1999/xlink" xmlns:svgjs="http://svgjs.dev/svgjs" width="2000" height="1500" viewBox="0 0 2000 1500">
<rect width="2000" height="1500" fill="#111111"></rect>
<g transform="matrix(0.4444444444444444,0,0,0.4444444444444444,555.555640326606,250)">
<svg viewBox="0 0 320 360" data-background-color="#111111" preserveAspectRatio="xMidYMid meet" height="2250" width="2000" xmlns="http://www.w3.org/2000/svg" xmlns:xlink="http://www.w3.org/1999/xlink"><g id="tight-bounds" transform="matrix(1,0,0,1,-0.000030517578125,0)">
<svg viewBox="0 0 320 360" height="360" width="320">
<rect width="320.00006103515625" height="360" fill="url(#f303d94e-abd5-43a5-b233-1e864d000d2c)" mask="url(&quot;#93e2fe71-4218-4b61-bc0d-1ac6d8eccb29&quot;)" data-fill-palette-color="secondary"></rect>
<g><svg></svg></g>
<g>
<svg viewBox="0 0 320 360" height="360" width="320">
<g>
<path xmlns="http://www.w3.org/2000/svg" d="M219.58 41.008c0.707 0 6.365 2.829 9.547 3.89-1.061 0.354-3.536-0.707-6.365-1.768 0.707 0 2.122 0.354 3.536 1.06-0.707-0.707-6.011-2.475-6.718-3.182M166.895 30.047c1.061-0.354 13.436 1.414 19.094 1.768 0.354-0.354-0.707-0.354-2.122-0.707 1.768-0.354 5.304 0.707 7.779 1.06-7.425 0.354-15.558-1.768-22.629-1.06-2.475 0-0.707-0.707-2.122-1.061M156.641 30.047c6.365 0 11.315 0 2.121 0.707-1.061-0.354-2.475-0.354-2.121-0.707M256.707 59.395c0.707 0 3.536 3.182 4.95 4.243-0.354 0.354-3.182-2.475-4.596-3.536 0.354 0.354 0 0-0.354-0.707M249.635 54.798c-2.829-2.475-3.889-2.475-4.243-3.889 2.475 1.414 4.243 2.829 4.243 3.889M204.022 32.522c0.354-0.354 1.061 0.354 2.829 0.707-2.122-0.354-1.768 0-1.061 0.707-2.475-0.354-3.182-0.707-2.475-1.414 1.414 0.707 1.768 0.354 0.707 0M103.602 36.765c0-0.354 1.414-1.061 2.475-1.414-1.061 0.707-0.707 1.061 1.061 0.353 0 0.354-2.122 1.061-3.536 1.768 0.707-0.354 1.414-1.414 0-0.707M211.094 28.986c-1.061 0.354-4.95-1.768-8.84-2.475-2.122-0.707 8.486 1.768 8.84 2.475M2.475 203.66c2.122 8.84 0.707 8.486 0 0M2.829 150.621c0.354-1.414 0.707-5.304 1.06-4.95-1.061 8.486-2.829 12.376-3.182 18.74 1.061-5.657-0.354 3.182-0.707 5.304 0.354 2.829 0.354-1.768 1.061-1.06 0.707 1.061-1.414 15.912-0.707 7.779-0.707 7.425 0 15.558 1.414 17.679-1.768 11.315 7.072 36.773 8.84 42.077 0.354 0.354 0-1.768 0.707-0.353 0.707 4.597 3.889 7.779 4.95 12.729 1.061 1.414 5.304 9.193 6.011 10.962 1.414 2.829 2.122 2.475 3.536 5.303 4.243 8.133 10.961 15.912 17.326 23.337 20.508 24.044 51.978 43.845 86.984 50.918 35.006 7.425 71.779 2.122 100.419-11.669 1.768-1.061 1.414-1.414 3.536-2.122 9.901-3.182 21.923-13.436 28.641-17.326 3.182-3.536 11.669-9.547 12.73-13.082 6.011-4.95 12.022-13.083 15.204-18.387 1.768-2.829 3.182-2.829 3.889-4.597-0.354 0 5.657-7.425 7.426-11.668-0.707 0-1.768 2.122-1.768 0 12.729-24.398 19.801-57.282 15.911-79.912 0.707 27.934-6.365 59.05-19.801 78.851-6.011 12.729-18.387 26.519-29.701 36.42-1.768 1.768-3.536 3.889-5.658 5.304-6.718 5.657-14.144 10.254-21.922 14.497-18.387 10.254-38.895 19.094-62.94 19.447 41.37-3.536 78.497-24.398 99.006-49.856-15.558 15.204-22.276 21.215-39.602 30.055-1.414 2.475-13.083 7.425-20.862 9.547 4.597-2.122 14.144-5.657 17.326-8.486-25.812 12.376-54.453 19.448-81.326 15.558 10.254 0 24.751 0.354 38.541-2.121 2.122-0.707 3.182-1.414 5.658-1.768 26.873-6.011 52.685-19.094 71.072-37.481-10.608 9.547-26.519 20.862-36.774 24.398 9.547-5.304 26.873-15.558 32.53-23.337-11.315 11.315-32.53 22.63-45.966 27.58-2.122 0.354 1.414-1.414-2.122 0-4.243 1.061-2.475 1.061-3.536 1.768-16.265 4.597-35.006 8.486-50.563 7.072-2.829-0.354-3.889-1.061-6.365-1.061-2.829-0.354-5.304-0.354-8.486-0.354-12.376-1.414-25.812-6.365-35.713-10.607-5.304-2.475-10.608-4.243-15.912-7.426-4.243-2.475-7.779-5.304-11.314-8.132-13.436-9.901-24.751-19.801-35.36-33.945-19.094-26.519-28.994-59.757-27.58-92.641 1.414-32.884 14.497-65.061 35.359-88.752-1.061 1.061 1.414-2.475 3.536-4.596 0 0.707-0.354 1.768 2.122-0.707 2.122-2.475-0.707-0.707 0.353-2.122 21.923-24.044 60.111-43.492 99.36-44.199 1.414-1.061 3.889-2.475 6.718-1.768 0 0.354-1.768 0.354-1.768 0.354 3.889-0.354 7.425-0.354 9.193 0.353 0.354-0.354-1.414-0.707 0-0.707 2.475 0.707 3.182 0 4.597 0.707-1.061 0-2.122 0-2.829 0.354 8.84 0 14.497 2.122 23.337 2.829-4.597-1.061-5.657-1.061-9.193-2.122 3.889 0.707 5.657 1.414 7.425 1.061-0.707 0-0.354-1.061 0.354-0.707 7.072 1.768 7.779 2.475 15.204 4.95 0.707-0.707-3.182-1.061-4.243-2.122 7.072 2.475 13.436 4.243 17.68 7.072-1.414-1.061-5.657-2.475-8.84-3.889-0.354 0.354 1.061 0.707 1.414 1.414-3.536-1.768-8.486-3.536-13.436-4.243 4.243 1.061 7.072 2.475 8.84 3.182-3.889-0.707-8.84-3.182-14.498-4.243 9.193 2.829 26.519 9.193 37.127 14.851-3.889-2.475-8.486-4.243-10.961-5.657 2.122 0.354 4.597 1.768 4.597 1.06 2.475 1.061 5.657 3.536 7.425 3.89-3.182-2.122-9.547-5.304-11.668-6.365 26.519 12.022 50.21 32.177 65.414 57.989 1.414 2.475 3.536 8.133 5.304 8.84-0.354-1.768-1.768-2.829-3.182-5.657 0.707 0 0.707-1.061 0-2.122-1.414-1.768 0 1.414-1.415-0.354-6.365-11.669-14.144-21.923-26.165-33.237 6.718 6.365 1.768 1.768 0.353-0.354 9.193 8.133 19.801 21.923 24.398 28.995-0.707-1.061-1.061-1.768-0.707-1.768 8.486 14.497 13.79 27.58 19.094 46.32 0.354 0.354 0-1.414 0.707-0.353 3.536 14.851 4.597 27.227 4.243 38.541 2.829-19.094-3.536-48.796-14.851-72.133-1.414-2.829-1.414-0.707-2.829-3.889 0-1.061-1.061-3.182-1.768-4.597-14.144-23.337-31.47-39.956-51.978-53.038 1.414 0.707 4.243 2.829 4.244 2.475-38.188-25.105-82.387-28.641-118.807-20.862-2.475 1.061-3.536 2.122-6.365 3.536 5.304-1.768 8.486-2.122 13.437-3.183 1.061-1.061-4.597 0.354-2.122-0.707 0.354 0.354 4.95-0.707 6.011-0.353 0 0.354-1.414 0.707-1.768 1.06 11.669-2.475 23.691-2.829 33.945-2.121-6.011 0.354-16.972-0.707-20.508 1.061 3.536-0.354 8.486-0.707 11.668-0.354-4.243 0-12.022 0.354-15.558 0.707-0.354-0.354 5.657-1.061 1.768-1.06-1.768 0.354-4.597 0.354-5.657 1.414-30.409 2.829-60.111 18.74-80.973 37.481-4.243 3.536-9.193 7.425-12.375 11.314-7.779 8.84-12.729 17.68-18.387 25.459 3.536-7.425 11.315-18.74 20.508-28.287 9.193-9.547 19.094-17.68 24.398-21.923 0 1.414 8.486-5.304 11.669-7.425-2.122 1.768 1.414-0.707 2.121-0.354 11.315-6.718 20.508-9.193 30.763-13.083-2.475 0.707-4.597 1.414-4.951 1.061 2.475-0.707 3.889-1.414 3.536-1.768-9.901 2.829-25.459 9.547-37.834 16.972 22.276-15.204 50.564-24.398 78.497-24.751 27.934-0.707 55.16 6.365 76.729 17.68 14.497 6.365 28.287 18.033 39.249 29.348 3.182 2.829 0.707-0.707 5.304 4.243-1.414-0.707-2.475-1.414-0.707 0.707 2.829 3.182-0.707-2.475 3.889 3.182-0.354 0-1.768-1.768-1.768-1.061 12.376 10.961 21.923 30.762 27.58 43.846-1.414-5.304-4.95-12.729-7.779-18.033 8.486 15.558 11.315 24.751 14.851 38.541 1.414 1.061-0.707-4.95 0.707-2.121 0.354 2.122 0.707 8.84 2.122 9.9-1.061-6.718-2.829-14.851-4.243-16.265 1.061 0.707-1.768-8.133-3.536-10.254-0.707-5.657-5.657-15.558-9.901-22.984-15.204-29.702-42.431-54.099-72.839-67.536 0-0.707-1.768-1.414-2.476-2.121-30.055-12.729-66.122-16.265-100.773-8.133-35.006 8.486-67.889 28.641-91.227 57.636 1.061-3.536 9.901-10.254 10.255-13.083-10.254 10.961-21.215 25.459-28.641 41.016-7.779 15.558-12.022 31.47-13.79 43.138" fill="#cc3939" fill-rule="nonzero" stroke="none" stroke-width="1" stroke-linecap="butt" stroke-linejoin="miter" stroke-miterlimit="10" stroke-dasharray="" stroke-dashoffset="0" font-family="none" font-weight="none" font-size="none" text-anchor="none" style="mix-blend-mode: normal" data-fill-palette-color="tertiary">
</path>
</g>
<g transform="matrix(1,0,0,1,48,134.2265851543375)">
<svg viewBox="0 0 224 91.54682969132503" height="91.54682969132503" width="224">
<g>
<svg viewBox="0 0 224 91.54682969132503" height="91.54682969132503" width="224">
<g>
<svg viewBox="0 0 224 91.54682969132503" height="91.54682969132503" width="224">
<g id="textblocktransform">
<svg viewBox="0 0 224 91.54682969132503" height="91.54682969132503" width="224" id="textblock">
<g>
<svg viewBox="0 0 224 68.92818221064553" height="68.92818221064553" width="224">
<path d="M223.476 14.784C222.422 7.629 219.421 5.64 219.421 5.64 210.207-1.729 198.707-0.141 188.377 0.918 170.137 0.961 151.972 2.535 133.775 3.379 95.58 3.508 57.059 1.39 19.053 6.613 15.483 8.216-3.704 6.928 0.635 15.7 1.772 19.348 5.921 23.398 5.795 26.746 6.364 27.333 7.154 25.988 7.49 26.832 8.67 29.108 10.597 28.034 12.177 29.379 9.976 32.971 11.555 35.962 13.061 39.096 10.407 39.911 7.006 39.525 5.479 42.229 5.321 44.19 4.468 43.818 3.531 43.732 2.846 43.675 1.467 43.889 1.699 44.504 2.488 46.608-0.902 47.824 1.225 49.885-0.239 52.117 2.236 54.049 1.899 56.467 1.857 56.954 2.088 57.369 2.457 57.483 4.089 58.098 1.709 59.3 1.962 60.603 18.706 69.503 36.871 63.35 54.026 67.443 58.48 64.581 55.131 68.458 56.911 67.857 58.301 67.156 59.312 70.061 60.881 68.416 61.123 67.943 60.755 66.827 61.618 67.042 62.071 67.156 62.471 67.128 62.535 66.469 62.629 65.482 61.797 66.097 61.576 65.582 63.967 62.978 63.377 69.174 65.62 68.916 65.515 68.158 64.862 67.07 66.199 67.214 67.526 66.126 67.568 65.225 68.748 67.671 68.79 68.201 69 68.573 69.337 68.831 73.023 66.169 76.688 69.775 80.553 68.573 82.922 67.257 85.197 69.288 87.598 68.788 88.44 68.387 89.293 67.671 90.104 68.873 100.034 69.131 110.618 68.058 120.032 68.916 145.19 67.314 172.075 69.575 198.602 67.457 204.857 66.641 211.355 65.482 217.452 64.552 217.452 64.552 222.391 62.005 222.391 50.557S223.444 40.541 223.602 31.426C223.76 22.311 224.497 21.938 223.444 14.784Z" opacity="1" fill="#cc3939" data-fill-palette-color="tertiary">
</path>
<g transform="matrix(1,0,0,1,31.584000000000003,18.981962000000003)">
<svg width="160.832" viewBox="3.5 -33.5 176.58999633789062 34" height="30.96425821064552" data-palette-color="url(#a3566273-6291-4a4b-b6ff-9f555e573277)">
</svg>
</g>
</svg>
</g>
<g transform="matrix(1,0,0,1,56.45957274550234,76.23810043198188)">
<svg viewBox="0 0 111.08085450899532 15.30872925934315" height="15.30872925934315" width="111.08085450899532">
<g transform="matrix(1,0,0,1,0,0)">
<svg width="111.08085450899532" viewBox="10.949999809265137 -41.599998474121094 434.9499816894531 59.94999694824219" height="15.30872925934315" data-palette-color="url(#f303d94e-abd5-43a5-b233-1e864d000d2c)"></svg></g></svg></g></svg></g></svg></g><g></g></svg></g></svg></g></svg></g><defs></defs><mask id="93e2fe71-4218-4b61-bc0d-1ac6d8eccb29"><g id="SvgjsG1882"><svg viewBox="0 0 320 360" height="360" width="320"><g><svg></svg></g><g><svg viewBox="0 0 320 360" height="360" width="320"><g></g><g transform="matrix(1,0,0,1,48,134.2265851543375)"><svg viewBox="0 0 224 91.54682969132503" height="91.54682969132503" width="224">
<g><svg viewBox="0 0 224 91.54682969132503" height="91.54682969132503" width="224"><g><svg viewBox="0 0 224 91.54682969132503" height="91.54682969132503" width="224"><g id="SvgjsG1881"><svg viewBox="0 0 224 91.54682969132503" height="91.54682969132503" width="224" id="SvgjsSvg1880"><g><svg viewBox="0 0 224 68.92818221064553" height="68.92818221064553" width="224"><g transform="matrix(1,0,0,1,31.584000000000003,18.981962000000003)"><svg width="160.832" viewBox="3.5 -33.5 176.58999633789062 34" height="30.96425821064552" data-palette-color="url(#a3566273-6291-4a4b-b6ff-9f555e573277)"></svg></g></svg></g><g transform="matrix(1,0,0,1,56.45957274550234,76.23810043198188)"><svg viewBox="0 0 111.08085450899532 15.30872925934315" height="15.30872925934315" width="111.08085450899532"><g transform="matrix(1,0,0,1,0,0)">
<svg width="111.08085450899532" viewBox="10.949999809265137 -41.599998474121094 434.9499816894531 59.94999694824219" height="15.30872925934315" data-palette-color="url(#f303d94e-abd5-43a5-b233-1e864d000d2c)">
<path d="M11.45 1.55L11.45 1.55Q11.2-0.5 11.08-2.93 10.95-5.35 10.95-7.45L10.95-7.45Q10.95-10.8 11.18-13.88 11.4-16.95 11.73-20.33 12.05-23.7 12.45-27.68 12.85-31.65 13.15-36.85L13.15-36.85Q13.8-36.85 15.03-36.48 16.25-36.1 17.5-35.6 18.75-35.1 19.7-34.58 20.65-34.05 20.8-33.7L20.8-33.7Q19.95-31.75 19.28-28.58 18.6-25.4 18.15-21.65 17.7-17.9 17.45-13.95 17.2-10 17.2-6.55L17.2-6.55Q17.2-4.95 17.25-3.4 17.3-1.85 17.4-0.55L17.4-0.55Q18.45-2.1 19.83-4.98 21.2-7.85 22.68-11.4 24.15-14.95 25.63-18.82 27.1-22.7 28.35-26.23 29.6-29.75 30.48-32.58 31.35-35.4 31.7-36.85L31.7-36.85Q32.35-36.85 33.63-36.48 34.9-36.1 36.13-35.6 37.35-35.1 38.3-34.58 39.25-34.05 39.35-33.7L39.35-33.7Q38.5-31.75 37.83-28.58 37.15-25.4 36.7-21.65 36.25-17.9 36-13.95 35.75-10 35.75-6.55L35.75-6.55Q35.75-5.1 35.77-3.68 35.8-2.25 35.9-1.1L35.9-1.1Q37.5-5.25 39.23-9.33 40.95-13.4 42.65-17.13 44.35-20.85 45.95-24.08 47.55-27.3 48.9-29.83 50.25-32.35 51.25-34 52.25-35.65 52.8-36.2L52.8-36.2Q53.95-36.05 55.18-35.38 56.4-34.7 57.35-33.65L57.35-33.65Q55.9-32.5 54.05-29.88 52.2-27.25 50.25-23.8 48.3-20.35 46.33-16.45 44.35-12.55 42.65-8.85 40.95-5.15 39.63-1.95 38.3 1.25 37.6 3.2L37.6 3.2Q36.3 3.8 35.05 3.8L35.05 3.8Q33.45 3.6 32.02 3 30.6 2.4 30 1.55L30 1.55Q29.85 0.75 29.75-0.33 29.65-1.4 29.6-2.45 29.55-3.5 29.53-4.48 29.5-5.45 29.5-6.15L29.5-6.15Q29.5-10.6 29.85-15.23 30.2-19.85 30.7-25.15L30.7-25.15Q29.55-21.75 28.15-17.85 26.75-13.95 25.23-10.13 23.7-6.3 22.13-2.83 20.55 0.65 19.05 3.2L19.05 3.2Q17.75 3.8 16.5 3.8L16.5 3.8Q14.9 3.6 13.48 3 12.05 2.4 11.45 1.55ZM67.4-20.2L67.4-20.2Q67.9-20.2 68.57-20.03 69.25-19.85 69.8-19.58 70.35-19.3 70.72-19 71.1-18.7 71.1-18.45L71.1-18.45Q70.1-16.35 69.25-14.23 68.4-12.1 67.8-10.15 67.2-8.2 66.87-6.5 66.55-4.8 66.55-3.55L66.55-3.55Q66.55-2.15 66.85-1.23 67.15-0.3 67.85 0.1L67.85 0.1Q67.25 0.5 66.3 0.75 65.35 1 64.6 1L64.6 1Q61.9 1 61.9-2.7L61.9-2.7Q61.9-5.55 63.8-10.5L63.8-10.5Q62.8-8.2 61.5-6.18 60.2-4.15 58.85-2.6 57.5-1.05 56.12-0.08 54.75 0.9 53.6 1.1L53.6 1.1Q51.75 1 50.6-0.68 49.45-2.35 49.45-4.95L49.45-4.95Q49.45-7.75 50.65-10.85 51.85-13.95 53.72-16.6 55.6-19.25 57.8-21.03 60-22.8 62.05-22.9L62.05-22.9Q62.55-22.75 63.17-22.3 63.8-21.85 64.37-21.25 64.95-20.65 65.35-20.03 65.75-19.4 65.8-18.95L65.8-18.95Q63.8-18.65 61.67-17 59.55-15.35 57.82-13.03 56.1-10.7 55-8.05 53.9-5.4 53.9-3.1L53.9-3.1Q53.9-2.15 54.6-1.9L54.6-1.9Q56.05-2.2 57.95-4.38 59.85-6.55 62.55-11.1L62.55-11.1Q63.05-12 63.67-13.1 64.3-14.2 64.95-15.4 65.6-16.6 66.22-17.82 66.85-19.05 67.4-20.2ZM73.5-3.35L73.5-3.35Q73.5-3.8 73.57-4.48 73.65-5.15 73.85-6.28 74.05-7.4 74.37-9 74.7-10.6 75.2-12.85L75.2-12.85Q75.3-13.35 75.65-14.45 76-15.55 76.57-16.78 77.15-18 77.97-19.15 78.8-20.3 79.95-20.85L79.95-20.85Q80.8-20.65 82.2-19.83 83.6-19 84.6-17.55L84.6-17.55Q83.45-16.25 82.67-14.95 81.9-13.65 81.27-12.25 80.65-10.85 80.12-9.35 79.6-7.85 78.95-6.2L78.95-6.2Q78.4-4.8 77.95-3.33 77.5-1.85 77.45-0.75L77.45-0.75Q77.45 0.15 77.42 0.53 77.4 0.9 77.15 0.9L77.15 0.9Q76.95 0.9 76.35 0.65 75.75 0.4 75.12-0.13 74.5-0.65 74-1.45 73.5-2.25 73.5-3.35ZM83.05-25.05L83.05-25.05Q83.05-25.35 83.2-25.95L83.2-25.95Q82.95-26.2 82.77-26.7 82.6-27.2 82.6-27.6L82.6-27.6Q82.6-28.05 82.72-28.83 82.85-29.6 83.05-30.5 83.25-31.4 83.55-32.38 83.85-33.35 84.15-34.15L84.15-34.15Q84.75-34.15 85.62-33.83 86.5-33.5 87.4-32.98 88.3-32.45 89.05-31.83 89.8-31.2 90.2-30.65L90.2-30.65Q89.65-30.1 88.75-29.13 87.85-28.15 87-27.08 86.15-26 85.45-25.05 84.75-24.1 84.55-23.7L84.55-23.7Q83.95-23.8 83.5-24.23 83.05-24.65 83.05-25.05ZM93.34-24.25L93.34-24.25Q94.64-23.85 95.79-22.48 96.94-21.1 97.49-19.45L97.49-19.45Q96.94-18.1 95.79-16.2 94.64-14.3 93.49-12.33 92.34-10.35 91.42-8.58 90.49-6.8 90.34-5.65L90.34-5.65Q91.14-6.5 92.12-7.63 93.09-8.75 94.02-9.88 94.94-11 95.74-11.93 96.54-12.85 96.99-13.3L96.99-13.3Q97.94-14.3 99.24-15.63 100.54-16.95 101.97-18.13 103.39-19.3 104.84-20.13 106.29-20.95 107.49-20.95L107.49-20.95Q108.79-20.95 109.67-20.08 110.54-19.2 111.04-18.25L111.04-18.25Q111.04-18.15 110.67-17.98 110.29-17.8 109.59-17L109.59-17Q108.89-16.1 108.02-14.53 107.14-12.95 106.32-11.13 105.49-9.3 104.94-7.4 104.39-5.5 104.39-3.95L104.39-3.95Q104.39-2.7 104.72-2.35 105.04-2 105.64-2L105.64-2Q106.19-2 106.79-2.25 107.39-2.5 107.74-2.5L107.74-2.5Q107.94-2.4 108.07-2.08 108.19-1.75 108.19-1.5L108.19-1.5Q107.79-1.15 107.24-0.8 106.69-0.45 106.09-0.15 105.49 0.15 104.92 0.35 104.34 0.55 103.89 0.55L103.89 0.55Q102.44 0.55 101.52 0.13 100.59-0.3 100.07-1 99.54-1.7 99.34-2.68 99.14-3.65 99.14-4.75L99.14-4.75Q99.14-5.35 99.24-6.1 99.34-6.85 99.64-7.88 99.94-8.9 100.49-10.33 101.04-11.75 101.89-13.75L101.89-13.75Q101.79-13.75 100.54-13.05 99.29-12.35 97.84-10.9L97.84-10.9Q95.49-8.65 93.62-6.45 91.74-4.25 89.79-1.55L89.79-1.55Q88.69 0 87.87 1.07 87.04 2.15 86.44 2.5L86.44 2.5Q85.39 1.9 84.89 0.83 84.39-0.25 84.14-1.4L84.14-1.4Q84.14-2.35 84.42-3.8 84.69-5.25 85.17-7.03 85.64-8.8 86.34-10.75 87.04-12.7 87.89-14.65L87.89-14.65Q89.79-19.05 91.37-21.55 92.94-24.05 93.34-24.25ZM112.69-2.05L112.69-2.05Q112.69-3.05 112.92-4.85 113.14-6.65 113.52-8.75 113.89-10.85 114.37-13.05 114.84-15.25 115.34-17L115.34-17Q115.99-19.35 117.37-20.63 118.74-21.9 120.79-21.9L120.79-21.9Q121.89-21.9 122.97-21.55 124.04-21.2 124.24-20.65L124.24-20.65Q122.79-19.45 121.92-17.68 121.04-15.9 120.52-13.88 119.99-11.85 119.72-9.73 119.44-7.6 119.14-5.75L119.14-5.75Q120.79-7.95 122.27-9.73 123.74-11.5 124.89-12.55L124.89-12.55Q126.44-14 126.99-14.98 127.54-15.95 127.94-17.1L127.94-17.1Q128.24-18 128.67-19.2 129.09-20.4 130.09-21.4L130.09-21.4Q130.29-21.45 130.94-21.45L130.94-21.45Q131.44-21.45 132.02-21.4 132.59-21.35 133.09-21.2 133.59-21.05 133.94-20.85 134.29-20.65 134.34-20.35L134.34-20.35Q133.54-19.3 132.84-17.07 132.14-14.85 131.59-12.2 131.04-9.55 130.59-6.93 130.14-4.3 129.79-2.5L129.79-2.5Q129.99-2.6 130.69-3.3 131.39-4 132.27-5.05 133.14-6.1 134.12-7.35 135.09-8.6 135.84-9.8L135.84-9.8Q136.79-11.25 137.42-12.53 138.04-13.8 138.52-15.25 138.99-16.7 139.39-18.48 139.79-20.25 140.24-22.7L140.24-22.7Q140.54-23.1 141.57-23.38 142.59-23.65 143.44-23.65L143.44-23.65Q144.19-23.65 144.54-23.4L144.54-23.4Q144.29-20.6 143.62-18.4 142.94-16.2 141.79-14.13 140.64-12.05 138.94-9.98 137.24-7.9 134.94-5.45L134.94-5.45Q133.99-4.45 132.87-3.25 131.74-2.05 130.67-1.03 129.59 0 128.67 0.7 127.74 1.4 127.24 1.4L127.24 1.4Q126.09 1.4 125.34 0.5 124.59-0.4 124.59-1.8L124.59-1.8Q124.59-3.25 124.72-4.33 124.84-5.4 125.14-6.6L125.14-6.6Q125.44-7.7 125.62-8.45 125.79-9.2 125.92-9.75 126.04-10.3 126.09-10.7 126.14-11.1 126.19-11.5L126.19-11.5Q125.79-11.3 125.14-10.68 124.49-10.05 123.79-9.22 123.09-8.4 122.39-7.55 121.69-6.7 121.24-6.1L121.24-6.1Q120.29-4.8 119.59-3.8 118.89-2.8 118.27-1.9 117.64-1 117.04-0.08 116.44 0.85 115.64 1.9L115.64 1.9Q114.04 1.4 113.37 0.4 112.69-0.6 112.69-2.05ZM142.79-1L142.79-1Q143.04-2.45 143.66-4.83 144.29-7.2 145.14-9.88 145.99-12.55 146.94-15.25 147.89-17.95 148.79-20.1L148.79-20.1Q149.44-21.65 149.94-22.53 150.44-23.4 151.04-24L151.04-24Q151.74-23.9 152.49-23.65 153.24-23.4 153.94-23.05 154.64-22.7 155.19-22.33 155.74-21.95 156.04-21.6L156.04-21.6Q154.69-20 153.66-17.95 152.64-15.9 151.59-12.7L151.59-12.7Q154.29-15.1 156.36-17.3 158.44-19.5 160.24-22.2L160.24-22.2Q160.54-22.45 161.29-22.45L161.29-22.45Q161.99-22.45 162.64-22.23 163.29-22 163.54-21.6L163.54-21.6Q162.64-19.2 162.64-16.85L162.64-16.85Q162.64-14.65 163.29-13.55L163.29-13.55Q163.24-13.25 162.61-12.4 161.99-11.55 161.24-10.8L161.24-10.8Q159.89-11.5 158.84-12.73 157.79-13.95 157.29-15.4L157.29-15.4Q154.94-13.75 153.29-12.18 151.64-10.6 150.46-8.68 149.29-6.75 148.46-4.25 147.64-1.75 146.89 1.7L146.89 1.7Q146.44 1.65 145.81 1.38 145.19 1.1 144.56 0.7 143.94 0.3 143.44-0.15 142.94-0.6 142.79-1ZM164.19-3.35L164.19-3.35Q164.19-3.8 164.26-4.48 164.34-5.15 164.54-6.28 164.74-7.4 165.06-9 165.39-10.6 165.89-12.85L165.89-12.85Q165.99-13.35 166.34-14.45 166.69-15.55 167.26-16.78 167.84-18 168.66-19.15 169.49-20.3 170.64-20.85L170.64-20.85Q171.49-20.65 172.89-19.83 174.29-19 175.29-17.55L175.29-17.55Q174.14-16.25 173.36-14.95 172.59-13.65 171.96-12.25 171.34-10.85 170.81-9.35 170.29-7.85 169.64-6.2L169.64-6.2Q169.09-4.8 168.64-3.33 168.19-1.85 168.14-0.75L168.14-0.75Q168.14 0.15 168.11 0.53 168.09 0.9 167.84 0.9L167.84 0.9Q167.64 0.9 167.04 0.65 166.44 0.4 165.81-0.13 165.19-0.65 164.69-1.45 164.19-2.25 164.19-3.35ZM173.74-25.05L173.74-25.05Q173.74-25.35 173.89-25.95L173.89-25.95Q173.64-26.2 173.46-26.7 173.29-27.2 173.29-27.6L173.29-27.6Q173.29-28.05 173.41-28.83 173.54-29.6 173.74-30.5 173.94-31.4 174.24-32.38 174.54-33.35 174.84-34.15L174.84-34.15Q175.44-34.15 176.31-33.83 177.19-33.5 178.09-32.98 178.99-32.45 179.74-31.83 180.49-31.2 180.89-30.65L180.89-30.65Q180.34-30.1 179.44-29.13 178.54-28.15 177.69-27.08 176.84-26 176.14-25.05 175.44-24.1 175.24-23.7L175.24-23.7Q174.64-23.8 174.19-24.23 173.74-24.65 173.74-25.05ZM165.83 14.9L165.83 14.9Q165.83 14.6 166.03 14.35 166.23 14.1 166.48 13.85L166.48 13.85Q167.08 14.4 167.51 14.7 167.93 15 168.31 15.2 168.68 15.4 169.08 15.45 169.48 15.5 170.03 15.5L170.03 15.5Q172.63 15.5 174.98 14.13 177.33 12.75 179.41 10.15 181.48 7.55 183.18 3.8 184.88 0.05 186.18-4.7L186.18-4.7Q185.58-4.1 184.71-3.38 183.83-2.65 182.88-2 181.93-1.35 181.01-0.8 180.08-0.25 179.43 0L179.43 0Q178.58-0.15 177.86-0.73 177.13-1.3 176.58-2.15 176.03-3 175.73-4.08 175.43-5.15 175.43-6.35L175.43-6.35Q175.43-8.3 176.16-10.35 176.88-12.4 178.08-14.38 179.28-16.35 180.91-18.1 182.53-19.85 184.36-21.15 186.18-22.45 188.06-23.23 189.93-24 191.73-24L191.73-24Q193.48-24 194.36-23.28 195.23-22.55 195.63-20.8L195.63-20.8Q195.08-21.1 194.23-21.1L194.23-21.1Q193.03-21.1 191.46-20.15 189.88-19.2 188.26-17.68 186.63-16.15 185.03-14.18 183.43-12.2 182.21-10.15 180.98-8.1 180.21-6.15 179.43-4.2 179.43-2.65L179.43-2.65Q179.43-2.3 179.48-2.23 179.53-2.15 179.63-2.15L179.63-2.15Q180.08-2.15 180.86-2.65 181.63-3.15 182.61-3.93 183.58-4.7 184.63-5.73 185.68-6.75 186.63-7.8L186.63-7.8Q188.78-10.2 190.56-13.18 192.33-16.15 193.38-18.95L193.38-18.95Q194.73-18.85 195.78-18.5 196.83-18.15 197.23-17.75L197.23-17.75Q195.53-13.85 194.51-11.2 193.48-8.55 192.73-6.5L192.73-6.5Q191.38-2.9 190.21 0.08 189.03 3.05 187.81 5.58 186.58 8.1 185.16 10.28 183.73 12.45 181.93 14.45L181.93 14.45Q181.08 15.4 180.01 16.13 178.93 16.85 177.81 17.35 176.68 17.85 175.61 18.1 174.53 18.35 173.63 18.35L173.63 18.35Q172.43 18.35 171.18 18.07 169.93 17.8 168.86 17.32 167.78 16.85 166.98 16.23 166.18 15.6 165.83 14.9ZM198.38-0.85L198.38-0.85Q198.38-2.6 198.73-4.98 199.08-7.35 199.76-10.05 200.43-12.75 201.36-15.7 202.28-18.65 203.43-21.6L203.43-21.6Q204.43-24.25 205.76-26.95 207.08-29.65 208.63-32.25 210.18-34.85 211.86-37.2 213.53-39.55 215.23-41.5L215.23-41.5Q216.03-41.5 216.96-41.3 217.88-41.1 218.76-40.78 219.63-40.45 220.36-40 221.08-39.55 221.53-39.1L221.53-39.1Q217.78-35.25 214.78-31.33 211.78-27.4 210.03-23.95L210.03-23.95Q209.08-22.05 208.31-20.4 207.53-18.75 206.88-17.13 206.23-15.5 205.71-13.88 205.18-12.25 204.73-10.45L204.73-10.45Q214.33-22.7 218.98-22.7L218.98-22.7Q220.28-22.7 221.78-21.85 223.28-21 224.43-19.55L224.43-19.55Q222.88-17.85 221.23-15.45 219.58-13.05 218.21-10.63 216.83-8.2 215.96-6.13 215.08-4.05 215.08-3.05L215.08-3.05Q215.08-2.55 215.23-2.38 215.38-2.2 215.88-2.2L215.88-2.2Q216.63-2.2 217.08-2.4 217.53-2.6 217.63-2.6L217.63-2.6Q217.88-2.2 217.93-2.05 217.98-1.9 217.98-1.8L217.98-1.8Q217.98-1.6 217.38-1.23 216.78-0.85 215.96-0.48 215.13-0.1 214.33 0.2 213.53 0.5 213.13 0.5L213.13 0.5Q212.63 0.5 212.13 0.23 211.63-0.05 211.26-0.5 210.88-0.95 210.66-1.5 210.43-2.05 210.43-2.65L210.43-2.65Q210.43-3.4 210.86-4.88 211.28-6.35 212.03-8.33 212.78-10.3 213.83-12.65 214.88-15 216.08-17.45L216.08-17.45Q216.08-17.65 215.88-17.65L215.88-17.65Q215.73-17.65 215.11-17.25 214.48-16.85 213.93-16.45L213.93-16.45Q212.13-15.1 210.31-13.13 208.48-11.15 206.76-8.8 205.03-6.45 203.51-3.83 201.98-1.2 200.88 1.45L200.88 1.45Q200.73 1.8 200.43 2.1 200.13 2.4 199.93 2.4L199.93 2.4Q199.78 2.4 199.51 2.05 199.23 1.7 199.01 1.18 198.78 0.65 198.58 0.1 198.38-0.45 198.38-0.85ZM230.08-19.15L227.23-19.15Q226.98-19.45 226.78-20.43 226.58-21.4 226.58-22.1L226.58-22.1Q227.88-22 229.08-21.93 230.28-21.85 231.28-21.8L231.28-21.8Q232.03-23.3 232.9-24.78 233.78-26.25 234.6-27.48 235.43-28.7 236.15-29.55 236.88-30.4 237.28-30.65L237.28-30.65Q237.78-30.65 238.55-30.48 239.33-30.3 240.13-30.03 240.93-29.75 241.58-29.45 242.23-29.15 242.48-28.85L242.48-28.85Q240.98-26.95 239.9-25.33 238.83-23.7 237.58-21.6L237.58-21.6Q238.58-21.6 239.6-21.65 240.63-21.7 241.68-21.8L241.68-21.8Q241.93-21.55 242.08-21.18 242.23-20.8 242.23-20.4L242.23-20.4Q239.78-19.5 236.28-19.4L236.28-19.4Q235.03-17 234.05-14.63 233.08-12.25 232.4-10.05 231.73-7.85 231.35-5.9 230.98-3.95 230.98-2.4L230.98-2.4Q230.98-0.2 232.63 0.05L232.63 0.05Q234.13-0.15 235.48-0.7 236.83-1.25 237.88-2.1L237.88-2.1Q238.18-1.65 238.23-1.35L238.23-1.35Q237.93-0.9 237.2-0.3 236.48 0.3 235.63 0.88 234.78 1.45 233.98 1.85 233.18 2.25 232.78 2.3L232.78 2.3Q231.53 2.25 230.28 1.75 229.03 1.25 228 0.5 226.98-0.25 226.33-1.18 225.68-2.1 225.68-3L225.68-3Q225.68-4.2 226-6.03 226.33-7.85 226.93-10 227.53-12.15 228.33-14.5 229.13-16.85 230.08-19.15L230.08-19.15ZM260.37 1.55L260.37 1.55Q260.12-0.5 260-2.93 259.87-5.35 259.87-7.45L259.87-7.45Q259.87-10.8 260.1-13.88 260.32-16.95 260.65-20.33 260.97-23.7 261.37-27.68 261.77-31.65 262.07-36.85L262.07-36.85Q262.72-36.85 263.95-36.48 265.17-36.1 266.42-35.6 267.67-35.1 268.62-34.58 269.57-34.05 269.72-33.7L269.72-33.7Q268.87-31.75 268.2-28.58 267.52-25.4 267.07-21.65 266.62-17.9 266.37-13.95 266.12-10 266.12-6.55L266.12-6.55Q266.12-4.95 266.17-3.4 266.22-1.85 266.32-0.55L266.32-0.55Q267.37-2.1 268.75-4.98 270.12-7.85 271.6-11.4 273.07-14.95 274.55-18.82 276.02-22.7 277.27-26.23 278.52-29.75 279.4-32.58 280.27-35.4 280.62-36.85L280.62-36.85Q281.27-36.85 282.55-36.48 283.82-36.1 285.05-35.6 286.27-35.1 287.22-34.58 288.17-34.05 288.27-33.7L288.27-33.7Q287.42-31.75 286.75-28.58 286.07-25.4 285.62-21.65 285.17-17.9 284.92-13.95 284.67-10 284.67-6.55L284.67-6.55Q284.67-5.1 284.7-3.68 284.72-2.25 284.82-1.1L284.82-1.1Q286.42-5.25 288.15-9.33 289.87-13.4 291.57-17.13 293.27-20.85 294.87-24.08 296.47-27.3 297.82-29.83 299.17-32.35 300.17-34 301.17-35.65 301.72-36.2L301.72-36.2Q302.87-36.05 304.1-35.38 305.32-34.7 306.27-33.65L306.27-33.65Q304.82-32.5 302.97-29.88 301.12-27.25 299.17-23.8 297.22-20.35 295.25-16.45 293.27-12.55 291.57-8.85 289.87-5.15 288.55-1.95 287.22 1.25 286.52 3.2L286.52 3.2Q285.22 3.8 283.97 3.8L283.97 3.8Q282.37 3.6 280.95 3 279.52 2.4 278.92 1.55L278.92 1.55Q278.77 0.75 278.67-0.33 278.57-1.4 278.52-2.45 278.47-3.5 278.45-4.48 278.42-5.45 278.42-6.15L278.42-6.15Q278.42-10.6 278.77-15.23 279.12-19.85 279.62-25.15L279.62-25.15Q278.47-21.75 277.07-17.85 275.67-13.95 274.15-10.13 272.62-6.3 271.05-2.83 269.47 0.65 267.97 3.2L267.97 3.2Q266.67 3.8 265.42 3.8L265.42 3.8Q263.82 3.6 262.4 3 260.97 2.4 260.37 1.55ZM304.87 1.75L304.87 1.75Q302.02 1.45 300.32-0.75 298.62-2.95 298.62-6.35L298.62-6.35Q298.62-8.35 299.22-10.5 299.82-12.65 300.92-14.68 302.02-16.7 303.52-18.5 305.02-20.3 306.77-21.6L306.77-21.6Q309.52-23.65 311.92-23.65L311.92-23.65Q313.52-22.8 315.07-20.1L315.07-20.1Q315.32-20.1 315.52-20.13 315.72-20.15 315.97-20.15L315.97-20.15Q318.62-20.15 318.62-15.45L318.62-15.45Q318.62-12.3 317.6-9.47 316.57-6.65 314.75-4.35 312.92-2.05 310.4-0.48 307.87 1.1 304.87 1.75ZM307.42-14L307.42-14Q306.57-12.85 305.82-11.5 305.07-10.15 304.52-8.78 303.97-7.4 303.67-6.13 303.37-4.85 303.37-3.85L303.37-3.85Q303.37-2.65 303.77-1.55 304.17-0.45 304.67-0.3L304.67-0.3Q306.92-0.8 308.8-2.18 310.67-3.55 312.05-5.6 313.42-7.65 314.2-10.25 314.97-12.85 314.97-15.8L314.97-15.8Q314.97-17.1 314.82-17.85 314.67-18.6 314.32-19.15L314.32-19.15Q312.12-18.5 310.4-17.05 308.67-15.6 307.42-14ZM319.82-1L319.82-1Q320.07-2.45 320.69-4.83 321.32-7.2 322.17-9.88 323.02-12.55 323.97-15.25 324.92-17.95 325.82-20.1L325.82-20.1Q326.47-21.65 326.97-22.53 327.47-23.4 328.07-24L328.07-24Q328.77-23.9 329.52-23.65 330.27-23.4 330.97-23.05 331.67-22.7 332.22-22.33 332.77-21.95 333.07-21.6L333.07-21.6Q331.72-20 330.69-17.95 329.67-15.9 328.62-12.7L328.62-12.7Q331.32-15.1 333.39-17.3 335.47-19.5 337.27-22.2L337.27-22.2Q337.57-22.45 338.32-22.45L338.32-22.45Q339.02-22.45 339.67-22.23 340.32-22 340.57-21.6L340.57-21.6Q339.67-19.2 339.67-16.85L339.67-16.85Q339.67-14.65 340.32-13.55L340.32-13.55Q340.27-13.25 339.64-12.4 339.02-11.55 338.27-10.8L338.27-10.8Q336.92-11.5 335.87-12.73 334.82-13.95 334.32-15.4L334.32-15.4Q331.97-13.75 330.32-12.18 328.67-10.6 327.49-8.68 326.32-6.75 325.49-4.25 324.67-1.75 323.92 1.7L323.92 1.7Q323.47 1.65 322.84 1.38 322.22 1.1 321.59 0.7 320.97 0.3 320.47-0.15 319.97-0.6 319.82-1ZM341.27-4.7L341.27-4.7Q341.27-6.5 342.19-9.7 343.12-12.9 344.62-16.7 346.12-20.5 348.02-24.55 349.92-28.6 351.84-32.1 353.77-35.6 355.54-38.15 357.32-40.7 358.57-41.6L358.57-41.6Q359.27-41.55 360.09-41 360.92-40.45 361.62-39.68 362.32-38.9 362.79-38.05 363.27-37.2 363.27-36.5L363.27-36.5Q361.02-34.7 358.69-31.88 356.37-29.05 354.27-25.68 352.17-22.3 350.39-18.53 348.62-14.75 347.42-11.1L347.42-11.1Q349.02-13.85 350.77-16.1 352.52-18.35 354.27-19.95 356.02-21.55 357.69-22.43 359.37-23.3 360.87-23.35L360.87-23.35Q363.07-21.75 363.07-19.1L363.07-19.1Q363.07-17.5 362.42-15.88 361.77-14.25 360.69-12.88 359.62-11.5 358.24-10.53 356.87-9.55 355.37-9.25L355.37-9.25Q355.87-7.5 356.64-5.7 357.42-3.9 358.49-2.2 359.57-0.5 360.94 0.95 362.32 2.4 364.07 3.4L364.07 3.4Q363.82 3.9 363.32 4.4 362.82 4.9 362.12 5.28 361.42 5.65 360.59 5.88 359.77 6.1 358.97 6.1L358.97 6.1Q357.62 6.1 356.44 4.75 355.27 3.4 354.32 0.85L354.32 0.85Q353.57-1.2 352.87-4.05 352.17-6.9 351.62-10L351.62-10Q352.32-10.45 353.37-11.33 354.42-12.2 355.57-13.35L355.57-13.35Q359.97-17.6 359.97-20.7L359.97-20.7Q359.97-21.1 359.42-21.1L359.42-21.1Q358.42-21.05 357.07-20.15 355.72-19.25 354.19-17.65 352.67-16.05 351.09-13.9 349.52-11.75 348.07-9.25L348.07-9.25Q347.47-8.25 346.97-6.95 346.47-5.65 346.09-4.28 345.72-2.9 345.52-1.55 345.32-0.2 345.32 0.95L345.32 0.95Q345.32 1.65 345.47 2.1L345.47 2.1Q343.92 1.95 343.57 1.3L343.57 1.3Q343.17 0.7 342.89 0.33 342.62-0.05 342.32-0.3L342.32-0.3Q341.87-0.65 341.57-1.8 341.27-2.95 341.27-4.7ZM384.21-19.9L384.21-19.9Q384.16-18.95 383.89-17.93 383.61-16.9 383.21-16.07 382.81-15.25 382.36-14.7 381.91-14.15 381.51-14.15L381.51-14.15Q380.96-14.2 380.86-14.9L380.86-14.9Q380.86-15.05 380.99-15.38 381.11-15.7 381.26-16.1 381.41-16.5 381.54-16.9 381.66-17.3 381.66-17.6L381.66-17.6Q381.66-18.3 381.34-18.78 381.01-19.25 380.46-19.25L380.46-19.25Q378.46-19.25 377.41-16.75 376.36-14.25 376.36-9.4L376.36-9.4Q376.36-8.9 376.41-8.8L376.41-8.8Q377.46-8.85 378.29-8.88 379.11-8.9 379.91-8.9L379.91-8.9Q379.96-8.8 379.96-8.5L379.96-8.5Q379.96-8.05 379.76-7.85L379.76-7.85Q378.61-7.6 377.94-7.43 377.26-7.25 376.91-7.1 376.56-6.95 376.49-6.78 376.41-6.6 376.41-6.3L376.41-6.3Q376.41-5.9 376.44-5.5 376.46-5.1 376.46-4.5L376.46-4.5Q376.46-0.3 374.19 2.25 371.91 4.8 367.86 5.2L367.86 5.2Q367.16 5.15 366.41 4.8 365.66 4.45 364.99 3.9 364.31 3.35 363.81 2.68 363.31 2 363.11 1.3L363.11 1.3Q363.11-0.6 363.91-2.33 364.71-4.05 366.09-5.38 367.46-6.7 369.34-7.53 371.21-8.35 373.41-8.5L373.41-8.5Q373.41-9.75 373.16-10.95 372.91-12.15 372.64-13.28 372.36-14.4 372.11-15.48 371.86-16.55 371.86-17.6L371.86-17.6Q371.86-18.95 372.41-20.28 372.96-21.6 373.86-22.73 374.76-23.85 375.96-24.65 377.16-25.45 378.46-25.75L378.46-25.75Q379.01-25.6 379.94-24.88 380.86-24.15 381.76-23.25 382.66-22.35 383.36-21.43 384.06-20.5 384.21-19.9ZM367.71 2.9L367.71 2.9Q368.91 2.4 369.99 1.45 371.06 0.5 371.86-0.7 372.66-1.9 373.14-3.25 373.61-4.6 373.61-5.9L373.61-5.9Q372.61-5.75 371.41-4.98 370.21-4.2 369.16-3.13 368.11-2.05 367.41-0.9 366.71 0.25 366.71 1.1L366.71 1.1Q366.71 2.2 367.71 2.9ZM396.11-3.2L396.11-3.2Q396.11-5.4 397.16-9.38 398.21-13.35 400.11-18.65L400.11-18.65Q403.21-27.1 405.93-32.73 408.66-38.35 411.26-41.5L411.26-41.5Q411.86-41.4 412.73-41 413.61-40.6 414.46-40.13 415.31-39.65 415.98-39.15 416.66-38.65 416.86-38.35L416.86-38.35Q412.96-33.75 410.01-28.45 407.06-23.15 404.61-16.3L404.61-16.3Q402.51-10.4 401.41-5.68 400.31-0.95 400.31 2.2L400.31 2.2Q400.31 3.05 400.31 3.25 400.31 3.45 400.36 3.65L400.36 3.65Q399.66 3.55 399.16 3.3 398.66 3.05 398.51 2.7L398.51 2.7Q398.41 2.45 397.96 1.98 397.51 1.5 397.16 1.25L397.16 1.25Q396.71 0.95 396.41-0.33 396.11-1.6 396.11-3.2ZM413.76-19.15L410.91-19.15Q410.66-19.45 410.46-20.43 410.26-21.4 410.26-22.1L410.26-22.1Q411.56-22 412.76-21.93 413.96-21.85 414.96-21.8L414.96-21.8Q415.71-23.3 416.58-24.78 417.46-26.25 418.28-27.48 419.11-28.7 419.83-29.55 420.56-30.4 420.96-30.65L420.96-30.65Q421.46-30.65 422.23-30.48 423.01-30.3 423.81-30.03 424.61-29.75 425.26-29.45 425.91-29.15 426.16-28.85L426.16-28.85Q424.66-26.95 423.58-25.33 422.51-23.7 421.26-21.6L421.26-21.6Q422.26-21.6 423.28-21.65 424.31-21.7 425.36-21.8L425.36-21.8Q425.61-21.55 425.76-21.18 425.91-20.8 425.91-20.4L425.91-20.4Q423.46-19.5 419.96-19.4L419.96-19.4Q418.71-17 417.73-14.63 416.76-12.25 416.08-10.05 415.41-7.85 415.03-5.9 414.66-3.95 414.66-2.4L414.66-2.4Q414.66-0.2 416.31 0.05L416.31 0.05Q417.81-0.15 419.16-0.7 420.51-1.25 421.56-2.1L421.56-2.1Q421.86-1.65 421.91-1.35L421.91-1.35Q421.61-0.9 420.88-0.3 420.16 0.3 419.31 0.88 418.46 1.45 417.66 1.85 416.86 2.25 416.46 2.3L416.46 2.3Q415.21 2.25 413.96 1.75 412.71 1.25 411.68 0.5 410.66-0.25 410.01-1.18 409.36-2.1 409.36-3L409.36-3Q409.36-4.2 409.68-6.03 410.01-7.85 410.61-10 411.21-12.15 412.01-14.5 412.81-16.85 413.76-19.15L413.76-19.15ZM436.45-23.35L436.45-23.35Q437.45-23.35 438.75-22.75 440.05-22.15 441.05-21.2L441.05-21.2Q440.8-23.2 440.43-24.98 440.05-26.75 439.33-28.65 438.6-30.55 437.4-32.8 436.2-35.05 434.4-37.95L434.4-37.95Q434.55-38.4 435.08-39 435.6-39.6 436.28-40.13 436.95-40.65 437.68-41.05 438.4-41.45 439.05-41.55L439.05-41.55Q440.45-40 441.7-37.68 442.95-35.35 443.9-32.68 444.85-30 445.38-27.15 445.9-24.3 445.9-21.7L445.9-21.7Q445.9-19.1 445.33-16.35 444.75-13.6 443.73-10.98 442.7-8.35 441.35-6 440-3.65 438.43-1.8 436.85 0.05 435.15 1.23 433.45 2.4 431.75 2.7L431.75 2.7Q428.3 2.3 426.48 0.48 424.65-1.35 424.65-4.55L424.65-4.55Q424.65-6.25 425.18-8.25 425.7-10.25 426.58-12.23 427.45-14.2 428.63-16.07 429.8-17.95 431.13-19.45 432.45-20.95 433.8-22 435.15-23.05 436.45-23.35ZM431.35 0.7L431.35 0.7Q433.1 0.1 434.85-1.95 436.6-4 438-6.78 439.4-9.55 440.28-12.73 441.15-15.9 441.15-18.85L441.15-18.85Q441.15-19.7 441.15-19.9 441.15-20.1 441.1-20.3L441.1-20.3Q439.9-19.8 438.55-18.6 437.2-17.4 435.85-15.83 434.5-14.25 433.3-12.4 432.1-10.55 431.15-8.7 430.2-6.85 429.65-5.15 429.1-3.45 429.1-2.15L429.1-2.15Q429.1 0.35 431.35 0.7Z" opacity="1" transform="matrix(1,0,0,1,0,0)" fill="white" class="slogan-text-1" id="SvgjsPath1878"></path>
</svg>
</g>
</svg>
</g>
</svg>
</g>
</svg>
</g>
<g>
</g>
</svg>
</g>
</svg>
</g>
</svg>
</g>
<defs>
</defs>
</svg>
</g>
</mask
><linearGradient x1="0.054" x2="0.941" y1="0.5" y2="0.5" id="f303d94e-abd5-43a5-b233-1e864d000d2c"><stop stop-color="#9c7945" offset="0"></stop><stop stop-color="#faf3aa" offset="0.498"></stop><stop stop-color="#9c7945" offset="1"></stop></linearGradient><rect width="320.00006103515625" height="360" fill="url(#a3566273-6291-4a4b-b6ff-9f555e573277)" mask="url(&quot;#4d82878a-9bf6-4fa7-8700-29d982b5601a&quot;)" data-fill-palette-color="quaternary"></rect><mask id="4d82878a-9bf6-4fa7-8700-29d982b5601a"><g id="SvgjsG1890"><svg viewBox="0 0 320 360" height="360" width="320"><g><svg></svg></g><g><svg viewBox="0 0 320 360" height="360" width="320"><g><path xmlns="http://www.w3.org/2000/svg" d="M219.58 41.008c0.707 0 6.365 2.829 9.547 3.89-1.061 0.354-3.536-0.707-6.365-1.768 0.707 0 2.122 0.354 3.536 1.06-0.707-0.707-6.011-2.475-6.718-3.182M166.895 30.047c1.061-0.354 13.436 1.414 19.094 1.768 0.354-0.354-0.707-0.354-2.122-0.707 1.768-0.354 5.304 0.707 7.779 1.06-7.425 0.354-15.558-1.768-22.629-1.06-2.475 0-0.707-0.707-2.122-1.061M156.641 30.047c6.365 0 11.315 0 2.121 0.707-1.061-0.354-2.475-0.354-2.121-0.707M256.707 59.395c0.707 0 3.536 3.182 4.95 4.243-0.354 0.354-3.182-2.475-4.596-3.536 0.354 0.354 0 0-0.354-0.707M249.635 54.798c-2.829-2.475-3.889-2.475-4.243-3.889 2.475 1.414 4.243 2.829 4.243 3.889M204.022 32.522c0.354-0.354 1.061 0.354 2.829 0.707-2.122-0.354-1.768 0-1.061 0.707-2.475-0.354-3.182-0.707-2.475-1.414 1.414 0.707 1.768 0.354 0.707 0M103.602 36.765c0-0.354 1.414-1.061 2.475-1.414-1.061 0.707-0.707 1.061 1.061 0.353 0 0.354-2.122 1.061-3.536 1.768 0.707-0.354 1.414-1.414 0-0.707M211.094 28.986c-1.061 0.354-4.95-1.768-8.84-2.475-2.122-0.707 8.486 1.768 8.84 2.475M2.475 203.66c2.122 8.84 0.707 8.486 0 0M2.829 150.621c0.354-1.414 0.707-5.304 1.06-4.95-1.061 8.486-2.829 12.376-3.182 18.74 1.061-5.657-0.354 3.182-0.707 5.304 0.354 2.829 0.354-1.768 1.061-1.06 0.707 1.061-1.414 15.912-0.707 7.779-0.707 7.425 0 15.558 1.414 17.679-1.768 11.315 7.072 36.773 8.84 42.077 0.354 0.354 0-1.768 0.707-0.353 0.707 4.597 3.889 7.779 4.95 12.729 1.061 1.414 5.304 9.193 6.011 10.962 1.414 2.829 2.122 2.475 3.536 5.303 4.243 8.133 10.961 15.912 17.326 23.337 20.508 24.044 51.978 43.845 86.984 50.918 35.006 7.425 71.779 2.122 100.419-11.669 1.768-1.061 1.414-1.414 3.536-2.122 9.901-3.182 21.923-13.436 28.641-17.326 3.182-3.536 11.669-9.547 12.73-13.082 6.011-4.95 12.022-13.083 15.204-18.387 1.768-2.829 3.182-2.829 3.889-4.597-0.354 0 5.657-7.425 7.426-11.668-0.707 0-1.768 2.122-1.768 0 12.729-24.398 19.801-57.282 15.911-79.912 0.707 27.934-6.365 59.05-19.801 78.851-6.011 12.729-18.387 26.519-29.701 36.42-1.768 1.768-3.536 3.889-5.658 5.304-6.718 5.657-14.144 10.254-21.922 14.497-18.387 10.254-38.895 19.094-62.94 19.447 41.37-3.536 78.497-24.398 99.006-49.856-15.558 15.204-22.276 21.215-39.602 30.055-1.414 2.475-13.083 7.425-20.862 9.547 4.597-2.122 14.144-5.657 17.326-8.486-25.812 12.376-54.453 19.448-81.326 15.558 10.254 0 24.751 0.354 38.541-2.121 2.122-0.707 3.182-1.414 5.658-1.768 26.873-6.011 52.685-19.094 71.072-37.481-10.608 9.547-26.519 20.862-36.774 24.398 9.547-5.304 26.873-15.558 32.53-23.337-11.315 11.315-32.53 22.63-45.966 27.58-2.122 0.354 1.414-1.414-2.122 0-4.243 1.061-2.475 1.061-3.536 1.768-16.265 4.597-35.006 8.486-50.563 7.072-2.829-0.354-3.889-1.061-6.365-1.061-2.829-0.354-5.304-0.354-8.486-0.354-12.376-1.414-25.812-6.365-35.713-10.607-5.304-2.475-10.608-4.243-15.912-7.426-4.243-2.475-7.779-5.304-11.314-8.132-13.436-9.901-24.751-19.801-35.36-33.945-19.094-26.519-28.994-59.757-27.58-92.641 1.414-32.884 14.497-65.061 35.359-88.752-1.061 1.061 1.414-2.475 3.536-4.596 0 0.707-0.354 1.768 2.122-0.707 2.122-2.475-0.707-0.707 0.353-2.122 21.923-24.044 60.111-43.492 99.36-44.199 1.414-1.061 3.889-2.475 6.718-1.768 0 0.354-1.768 0.354-1.768 0.354 3.889-0.354 7.425-0.354 9.193 0.353 0.354-0.354-1.414-0.707 0-0.707 2.475 0.707 3.182 0 4.597 0.707-1.061 0-2.122 0-2.829 0.354 8.84 0 14.497 2.122 23.337 2.829-4.597-1.061-5.657-1.061-9.193-2.122 3.889 0.707 5.657 1.414 7.425 1.061-0.707 0-0.354-1.061 0.354-0.707 7.072 1.768 7.779 2.475 15.204 4.95 0.707-0.707-3.182-1.061-4.243-2.122 7.072 2.475 13.436 4.243 17.68 7.072-1.414-1.061-5.657-2.475-8.84-3.889-0.354 0.354 1.061 0.707 1.414 1.414-3.536-1.768-8.486-3.536-13.436-4.243 4.243 1.061 7.072 2.475 8.84 3.182-3.889-0.707-8.84-3.182-14.498-4.243 9.193 2.829 26.519 9.193 37.127 14.851-3.889-2.475-8.486-4.243-10.961-5.657 2.122 0.354 4.597 1.768 4.597 1.06 2.475 1.061 5.657 3.536 7.425 3.89-3.182-2.122-9.547-5.304-11.668-6.365 26.519 12.022 50.21 32.177 65.414 57.989 1.414 2.475 3.536 8.133 5.304 8.84-0.354-1.768-1.768-2.829-3.182-5.657 0.707 0 0.707-1.061 0-2.122-1.414-1.768 0 1.414-1.415-0.354-6.365-11.669-14.144-21.923-26.165-33.237 6.718 6.365 1.768 1.768 0.353-0.354 9.193 8.133 19.801 21.923 24.398 28.995-0.707-1.061-1.061-1.768-0.707-1.768 8.486 14.497 13.79 27.58 19.094 46.32 0.354 0.354 0-1.414 0.707-0.353 3.536 14.851 4.597 27.227 4.243 38.541 2.829-19.094-3.536-48.796-14.851-72.133-1.414-2.829-1.414-0.707-2.829-3.889 0-1.061-1.061-3.182-1.768-4.597-14.144-23.337-31.47-39.956-51.978-53.038 1.414 0.707 4.243 2.829 4.244 2.475-38.188-25.105-82.387-28.641-118.807-20.862-2.475 1.061-3.536 2.122-6.365 3.536 5.304-1.768 8.486-2.122 13.437-3.183 1.061-1.061-4.597 0.354-2.122-0.707 0.354 0.354 4.95-0.707 6.011-0.353 0 0.354-1.414 0.707-1.768 1.06 11.669-2.475 23.691-2.829 33.945-2.121-6.011 0.354-16.972-0.707-20.508 1.061 3.536-0.354 8.486-0.707 11.668-0.354-4.243 0-12.022 0.354-15.558 0.707-0.354-0.354 5.657-1.061 1.768-1.06-1.768 0.354-4.597 0.354-5.657 1.414-30.409 2.829-60.111 18.74-80.973 37.481-4.243 3.536-9.193 7.425-12.375 11.314-7.779 8.84-12.729 17.68-18.387 25.459 3.536-7.425 11.315-18.74 20.508-28.287 9.193-9.547 19.094-17.68 24.398-21.923 0 1.414 8.486-5.304 11.669-7.425-2.122 1.768 1.414-0.707 2.121-0.354 11.315-6.718 20.508-9.193 30.763-13.083-2.475 0.707-4.597 1.414-4.951 1.061 2.475-0.707 3.889-1.414 3.536-1.768-9.901 2.829-25.459 9.547-37.834 16.972 22.276-15.204 50.564-24.398 78.497-24.751 27.934-0.707 55.16 6.365 76.729 17.68 14.497 6.365 28.287 18.033 39.249 29.348 3.182 2.829 0.707-0.707 5.304 4.243-1.414-0.707-2.475-1.414-0.707 0.707 2.829 3.182-0.707-2.475 3.889 3.182-0.354 0-1.768-1.768-1.768-1.061 12.376 10.961 21.923 30.762 27.58 43.846-1.414-5.304-4.95-12.729-7.779-18.033 8.486 15.558 11.315 24.751 14.851 38.541 1.414 1.061-0.707-4.95 0.707-2.121 0.354 2.122 0.707 8.84 2.122 9.9-1.061-6.718-2.829-14.851-4.243-16.265 1.061 0.707-1.768-8.133-3.536-10.254-0.707-5.657-5.657-15.558-9.901-22.984-15.204-29.702-42.431-54.099-72.839-67.536 0-0.707-1.768-1.414-2.476-2.121-30.055-12.729-66.122-16.265-100.773-8.133-35.006 8.486-67.889 28.641-91.227 57.636 1.061-3.536 9.901-10.254 10.255-13.083-10.254 10.961-21.215 25.459-28.641 41.016-7.779 15.558-12.022 31.47-13.79 43.138" fill="black" fill-rule="nonzero" stroke="none" stroke-width="1" stroke-linecap="butt" stroke-linejoin="miter" stroke-miterlimit="10" stroke-dasharray="" stroke-dashoffset="0" font-family="none" font-weight="none" font-size="none" text-anchor="none" style="mix-blend-mode: normal">
</path></g><g transform="matrix(1,0,0,1,48,134.2265851543375)"><svg viewBox="0 0 224 91.54682969132503" height="91.54682969132503" width="224"><g><svg viewBox="0 0 224 91.54682969132503" height="91.54682969132503" width="224"><g><svg viewBox="0 0 224 91.54682969132503" height="91.54682969132503" width="224"><g id="SvgjsG1889"><svg viewBox="0 0 224 91.54682969132503" height="91.54682969132503" width="224" id="SvgjsSvg1888"><g><svg viewBox="0 0 224 68.92818221064553" height="68.92818221064553" width="224"><path d="M223.476 14.784C222.422 7.629 219.421 5.64 219.421 5.64 210.207-1.729 198.707-0.141 188.377 0.918 170.137 0.961 151.972 2.535 133.775 3.379 95.58 3.508 57.059 1.39 19.053 6.613 15.483 8.216-3.704 6.928 0.635 15.7 1.772 19.348 5.921 23.398 5.795 26.746 6.364 27.333 7.154 25.988 7.49 26.832 8.67 29.108 10.597 28.034 12.177 29.379 9.976 32.971 11.555 35.962 13.061 39.096 10.407 39.911 7.006 39.525 5.479 42.229 5.321 44.19 4.468 43.818 3.531 43.732 2.846 43.675 1.467 43.889 1.699 44.504 2.488 46.608-0.902 47.824 1.225 49.885-0.239 52.117 2.236 54.049 1.899 56.467 1.857 56.954 2.088 57.369 2.457 57.483 4.089 58.098 1.709 59.3 1.962 60.603 18.706 69.503 36.871 63.35 54.026 67.443 58.48 64.581 55.131 68.458 56.911 67.857 58.301 67.156 59.312 70.061 60.881 68.416 61.123 67.943 60.755 66.827 61.618 67.042 62.071 67.156 62.471 67.128 62.535 66.469 62.629 65.482 61.797 66.097 61.576 65.582 63.967 62.978 63.377 69.174 65.62 68.916 65.515 68.158 64.862 67.07 66.199 67.214 67.526 66.126 67.568 65.225 68.748 67.671 68.79 68.201 69 68.573 69.337 68.831 73.023 66.169 76.688 69.775 80.553 68.573 82.922 67.257 85.197 69.288 87.598 68.788 88.44 68.387 89.293 67.671 90.104 68.873 100.034 69.131 110.618 68.058 120.032 68.916 145.19 67.314 172.075 69.575 198.602 67.457 204.857 66.641 211.355 65.482 217.452 64.552 217.452 64.552 222.391 62.005 222.391 50.557S223.444 40.541 223.602 31.426C223.76 22.311 224.497 21.938 223.444 14.784Z" opacity="1" fill="black"></path><g transform="matrix(1,0,0,1,31.584000000000003,18.981962000000003)"><svg width="160.832" viewBox="3.5 -33.5 176.58999633789062 34" height="30.96425821064552" data-palette-color="url(#a3566273-6291-4a4b-b6ff-9f555e573277)">
<path d="M20.15 0.5L20.15 0.5Q15.35 0.5 11.58-1.6 7.8-3.7 5.65-7.33 3.5-10.95 3.5-15.6L3.5-15.6Q3.5-19.45 4.88-22.7 6.25-25.95 8.65-28.38 11.05-30.8 14.25-32.15 17.45-33.5 21.05-33.5L21.05-33.5Q23.7-33.5 25.53-33.2 27.35-32.9 28.83-32.35 30.3-31.8 31.7-31.1L31.7-31.1 31.95-23.05 31.05-23.05 28.35-28.65Q26.25-30.15 24.6-30.78 22.95-31.4 20.85-31.4L20.85-31.4Q16.8-31.4 13.75-29.6 10.7-27.8 8.97-24.73 7.25-21.65 7.25-17.9L7.25-17.9Q7.25-12.9 9.15-9.35 11.05-5.8 14.23-3.9 17.4-2 21.2-2L21.2-2Q22.95-2 24.58-2.23 26.2-2.45 27.95-3.15L27.95-3.15 27.95-11.9 23.55-13.5 23.55-14.5 35.45-14.5 35.45-13.5 31.85-11.9 31.85-3.5Q29.7-1.65 26.45-0.58 23.2 0.5 20.15 0.5ZM52.85 0L41.2 0 41.2-1 45.2-2.5 45.2-30.5 41.2-32 41.2-33 52.85-33Q58.1-33 61.12-30.83 64.15-28.65 64.15-24.85L64.15-24.85Q64.15-21.95 62.22-19.78 60.3-17.6 57.2-16.55L57.2-16.55 66.75-2.3 70.05-1 70.05 0 63.45 0 53.65-15.35 49.1-15.35 49.1-2.55 52.85-1 52.85 0ZM52.35-30.65L52.35-30.65 49.1-30.65 49.1-17.7 52.65-17.7Q55.8-17.7 57.87-19.55 59.95-21.4 59.95-24.2L59.95-24.2Q59.95-27.2 57.9-28.93 55.85-30.65 52.35-30.65ZM81.65 0L71.45 0 71.45-1 74.45-2.25 87.2-33.25 88.95-33.25 101.65-2.3 104.8-1 104.8 0 93.15 0 93.15-1 97.45-2.3 93.55-12.05 81.2-12.05 77.35-2.25 81.65-1 81.65 0ZM87.35-27.5L82.15-14.4 92.6-14.4 87.35-27.5ZM121.19 0L109.54 0 109.54-1 113.49-2.5 113.49-30.45 109.59-32 109.59-33 116.59-33 136.19-7.55 136.19-30.55 131.49-32 131.49-33 142.99-33 142.99-32 139.04-30.5 139.04 0.25 137.49 0.25 116.39-27 116.39-2.55 121.19-1 121.19 0ZM162.39 0L149.34 0 149.34-1 153.34-2.5 153.34-30.5 149.34-32 149.34-33 162.74-33Q168.29-33 172.17-31.05 176.04-29.1 178.07-25.7 180.09-22.3 180.09-18L180.09-18Q180.09-12.65 177.84-8.6 175.59-4.55 171.59-2.27 167.59 0 162.39 0L162.39 0ZM162.24-30.65L162.24-30.65 157.24-30.65 157.24-2.35 162.79-2.35Q166.79-2.35 169.77-4.13 172.74-5.9 174.37-9.08 175.99-12.25 175.99-16.45L175.99-16.45Q175.99-20.75 174.39-23.95 172.79-27.15 169.72-28.9 166.64-30.65 162.24-30.65Z" opacity="1" transform="matrix(1,0,0,1,0,0)" fill="white" class="wordmark-text-0" id="SvgjsPath1887">
</path></svg></g></svg></g><g transform="matrix(1,0,0,1,56.45957274550234,76.23810043198188)"><svg viewBox="0 0 111.08085450899532 15.30872925934315" height="15.30872925934315" width="111.08085450899532"><g transform="matrix(1,0,0,1,0,0)"><svg width="111.08085450899532" viewBox="10.949999809265137 -41.599998474121094 434.9499816894531 59.94999694824219" height="15.30872925934315" data-palette-color="url(#f303d94e-abd5-43a5-b233-1e864d000d2c)">
</svg></g></svg></g></svg></g></svg></g><g></g></svg></g></svg></g></svg></g><defs></defs><mask><g id="SvgjsG1886"><svg viewBox="0 0 320 360" height="360" width="320"><g><svg></svg></g><g><svg viewBox="0 0 320 360" height="360" width="320"><g></g><g transform="matrix(1,0,0,1,48,134.2265851543375)"><svg viewBox="0 0 224 91.54682969132503" height="91.54682969132503" width="224"><g><svg viewBox="0 0 224 91.54682969132503" height="91.54682969132503" width="224"><g><svg viewBox="0 0 224 91.54682969132503" height="91.54682969132503" width="224"><g id="SvgjsG1885"><svg viewBox="0 0 224 91.54682969132503" height="91.54682969132503" width="224" id="SvgjsSvg1884">
<g><svg viewBox="0 0 224 68.92818221064553" height="68.92818221064553" width="224"><g transform="matrix(1,0,0,1,31.584000000000003,18.981962000000003)"><svg width="160.832" viewBox="3.5 -33.5 176.58999633789062 34" height="30.96425821064552" data-palette-color="url(#a3566273-6291-4a4b-b6ff-9f555e573277)">
</svg></g></svg></g><g transform="matrix(1,0,0,1,56.45957274550234,76.23810043198188)"><svg viewBox="0 0 111.08085450899532 15.30872925934315" height="15.30872925934315" width="111.08085450899532"><g transform="matrix(1,0,0,1,0,0)">
<svg width="111.08085450899532" viewBox="10.949999809265137 -41.599998474121094 434.9499816894531 59.94999694824219" height="15.30872925934315" data-palette-color="url(#f303d94e-abd5-43a5-b233-1e864d000d2c)">
</svg></g></svg></g></svg></g></svg></g><g></g></svg></g></svg></g></svg></g><defs></defs></svg></g>
</mask>
</svg>
</g>
</mask>
<linearGradient x1="0.054" x2="0.941" y1="0.5" y2="0.5" id="a3566273-6291-4a4b-b6ff-9f555e573277"><stop stop-color="#8c8c8c" offset="0">
</stop>
<stop stop-color="#e3e4e5" offset="0.498">
</stop>
<stop stop-color="#8c8c8c" offset="1">
</stop>
</linearGradient></svg><rect width="320" height="360" fill="none" stroke="none" visibility="hidden">
</rect>
</g>
</svg>
</g>
</svg>